<?xml version="1.0" standalone="no"?>
<!DOCTYPE svg PUBLIC "-//W3C//DTD SVG 20010904//EN"
 "http://www.w3.org/TR/2001/REC-SVG-20010904/DTD/svg10.dtd">
<svg version="1.0" xmlns="http://www.w3.org/2000/svg"
 width="700.000000pt" height="700.000000pt" viewBox="0 0 700.000000 700.000000"
 preserveAspectRatio="xMidYMid meet">
<metadata>
Created by potrace 1.11, written by Peter Selinger 2001-2013
</metadata>
<g transform="translate(0.000000,700.000000) scale(0.100000,-0.100000)"
fill="#000000" stroke="none">
<path d="M3347 6504 c-1 -1 -40 -5 -87 -8 -82 -6 -147 -13 -200 -22 -129 -21
-168 -29 -258 -50 -331 -77 -681 -230 -972 -424 -765 -513 -1261 -1360 -1327
-2270 -12 -168 -6 -480 11 -590 3 -14 7 -43 10 -65 35 -253 124 -568 223 -785
94 -209 248 -470 359 -610 180 -227 338 -385 577 -576 37 -30 236 -162 302
-201 330 -193 727 -331 1090 -379 28 -3 57 -8 66 -9 94 -18 429 -25 589 -12
164 14 189 17 295 37 28 5 62 12 78 15 146 28 283 67 456 131 626 234 1171
689 1523 1274 64 106 182 342 194 385 1 6 10 28 19 50 45 104 125 368 150 495
5 26 34 203 39 240 20 145 26 459 12 630 -8 92 -7 88 -31 235 -77 461 -265
907 -540 1280 -376 509 -873 873 -1470 1075 -102 35 -319 92 -390 103 -16 3
-59 10 -95 16 -167 26 -257 33 -453 35 -92 1 -168 1 -170 0z m373 -298 c52 -4
104 -9 115 -11 11 -2 43 -7 70 -10 65 -8 258 -51 364 -81 487 -142 950 -441
1283 -829 86 -100 87 -101 155 -195 160 -222 290 -480 377 -749 30 -92 47
-157 82 -316 13 -57 36 -243 41 -335 33 -515 -70 -996 -308 -1449 -324 -618
-896 -1098 -1564 -1314 -114 -36 -254 -73 -321 -82 -21 -4 -46 -8 -54 -11 -8
-2 -38 -6 -65 -9 -28 -4 -61 -8 -75 -11 -121 -21 -549 -21 -654 1 -12 2 -41 7
-66 10 -444 62 -922 269 -1284 555 -188 149 -404 379 -549 586 -191 273 -365
677 -423 979 -2 11 -6 33 -10 48 -7 32 -8 40 -23 147 -17 131 -23 211 -24 360
-1 249 22 435 83 681 253 1007 1087 1795 2110 1994 97 19 220 35 320 41 47 4
86 7 87 8 4 4 247 -2 333 -8z"/>
<path d="M3540 6032 c447 -392 720 -814 915 -1412 37 -111 101 -353 111 -419
3 -18 8 -43 10 -55 22 -100 51 -293 59 -391 3 -38 8 -77 10 -85 2 -8 6 -45 9
-81 15 -177 24 -241 35 -252 11 -11 126 181 200 335 100 208 185 443 237 658
2 8 10 42 18 75 22 90 55 257 61 306 3 24 10 76 15 114 16 109 19 134 25 225
4 47 8 101 10 120 4 37 7 161 6 222 -1 30 -9 44 -43 75 -23 21 -49 45 -58 54
-29 27 -162 123 -235 168 -204 127 -561 263 -830 317 -173 35 -338 59 -470 70
-39 3 -88 7 -110 9 l-39 3 64 -56z"/>
<path d="M3090 6068 c-25 -4 -61 -10 -80 -13 -90 -12 -287 -71 -422 -126 -250
-103 -615 -342 -813 -532 -52 -50 -56 -57 -32 -51 38 9 322 9 432 1 325 -25
655 -108 975 -247 352 -152 630 -324 1024 -630 197 -153 236 -180 236 -166 0
15 -63 243 -83 301 -160 458 -473 938 -881 1348 l-127 128 -92 -2 c-51 -2
-112 -7 -137 -11z"/>
<path d="M1528 5208 c-182 -203 -308 -411 -414 -686 -74 -191 -153 -496 -180
-697 -4 -27 -8 -59 -10 -70 -2 -10 -6 -51 -10 -90 -3 -38 -7 -84 -9 -100 -2
-27 15 -14 164 135 255 254 464 403 791 565 203 101 514 209 746 260 11 2 60
13 109 24 50 11 115 23 145 26 30 4 57 8 60 10 3 2 34 6 70 10 36 3 72 8 80
10 14 4 63 8 210 20 30 2 84 7 120 10 36 2 101 7 145 11 44 3 84 9 89 14 10 9
-129 107 -259 182 -197 113 -399 195 -728 293 -57 17 -370 81 -442 91 -27 3
-58 8 -67 9 -16 3 -105 13 -188 21 -19 2 -109 6 -200 9 l-165 6 -57 -63z"/>
<path d="M5425 5072 c0 -158 -7 -277 -19 -352 -3 -14 -10 -61 -16 -104 -22
-152 -82 -371 -150 -556 -18 -47 -37 -98 -43 -115 -41 -113 -297 -577 -369
-670 -5 -5 -31 -41 -59 -80 -27 -38 -55 -77 -62 -85 -7 -9 -34 -45 -62 -80
-27 -36 -52 -67 -55 -70 -3 -3 -34 -39 -69 -80 -34 -41 -84 -99 -109 -129
-157 -184 -148 -165 -77 -156 266 33 622 160 929 332 282 158 618 407 825 613
l44 43 -6 131 c-6 131 -9 155 -20 211 -4 17 -9 46 -12 65 -31 195 -207 619
-336 807 -16 23 -29 44 -29 48 0 3 -5 11 -10 18 -6 7 -44 62 -86 122 -73 105
-171 232 -197 253 -9 8 -12 -29 -12 -166z"/>
<path d="M2500 4348 c-527 -115 -1029 -398 -1533 -862 l-88 -81 5 -118 c10
-209 66 -434 169 -672 45 -106 76 -167 157 -310 61 -109 242 -361 342 -478
l33 -38 0 193 c0 349 41 607 144 910 83 243 208 510 327 696 156 244 259 381
467 622 12 14 41 48 65 75 24 28 48 58 53 68 9 16 6 17 -23 15 -18 -1 -72 -10
-118 -20z"/>
<path d="M2193 3517 c-269 -401 -435 -891 -498 -1472 -4 -39 -17 -262 -19
-345 l-2 -65 51 -51 c119 -118 283 -229 477 -323 183 -89 481 -189 638 -216
19 -3 42 -8 50 -10 18 -5 45 -10 165 -29 93 -16 130 -20 248 -32 l69 -6 -169
168 c-259 259 -412 471 -562 779 -101 207 -205 508 -246 708 -2 10 -6 26 -9
35 -10 33 -51 266 -61 347 -3 28 -8 64 -10 80 -2 17 -7 66 -10 110 -3 44 -8
103 -10 130 -2 28 -7 93 -10 145 -6 101 -13 140 -24 140 -3 0 -34 -42 -68 -93z"/>
<path d="M6016 3295 c-365 -371 -826 -632 -1391 -788 -100 -28 -363 -83 -440
-92 -27 -4 -57 -8 -65 -10 -30 -8 -144 -20 -275 -30 -38 -3 -97 -7 -130 -10
-33 -2 -112 -7 -175 -11 -63 -3 -121 -9 -129 -14 -33 -18 322 -217 539 -303
278 -109 654 -204 921 -232 31 -3 67 -8 79 -10 12 -2 63 -7 114 -10 50 -4 101
-8 114 -10 22 -4 170 -7 237 -6 26 1 39 13 96 89 277 368 456 787 575 1347 19
88 33 167 32 175 -2 10 -39 -21 -102 -85z"/>
<path d="M2534 2846 c4 -29 8 -63 11 -74 2 -11 6 -35 9 -54 22 -141 128 -475
198 -628 78 -168 143 -294 206 -400 12 -19 29 -48 38 -65 22 -40 208 -312 238
-350 14 -16 56 -69 93 -116 37 -47 93 -114 124 -147 l56 -62 152 2 c358 2 718
107 1106 321 145 79 462 293 451 304 -1 2 -63 5 -137 8 -74 3 -145 7 -159 10
-14 3 -47 7 -75 11 -184 21 -516 102 -630 153 -11 5 -74 30 -140 57 -220 87
-510 249 -740 412 -115 82 -315 238 -381 298 -18 16 -69 63 -115 104 -46 41
-110 100 -144 131 -79 74 -155 139 -162 139 -2 0 -2 -24 1 -54z"/>
</g>
</svg>
